<?xml version="1.0" encoding="UTF-8" standalone="no"?>
<!DOCTYPE svg PUBLIC "-//W3C//DTD SVG 1.1//EN" "http://www.w3.org/Graphics/SVG/1.1/DTD/svg11.dtd">
<svg width="100%" height="100%" viewBox="0 0 1250 1250" version="1.1" xmlns="http://www.w3.org/2000/svg" xmlns:xlink="http://www.w3.org/1999/xlink" xml:space="preserve" xmlns:serif="http://www.serif.com/" style="fill-rule:evenodd;clip-rule:evenodd;stroke-linejoin:round;stroke-miterlimit:2;">
    <g transform="matrix(0.898971,0,0,0.898971,63.1433,-59.9841)">
        <path d="M1320.24,136.965L1320.24,1113.04C1320.24,1151.83 1288.79,1183.28 1250,1183.28L488.035,1183.28C469.406,1183.28 451.541,1175.87 438.368,1162.7L-49.667,674.667C-77.097,647.237 -77.097,602.763 -49.667,575.333L438.368,87.298C451.541,74.126 469.406,66.725 488.035,66.725L1250,66.725C1288.79,66.725 1320.24,98.173 1320.24,136.965ZM1250,136.965L488.035,136.965L0,625L488.035,1113.04L1250,1113.04L1250,136.965ZM781.309,625L488.937,332.628C475.37,319.061 475.37,297.033 488.937,283.467C502.503,269.9 524.531,269.9 538.098,283.467L830.47,575.839L1122.84,283.467C1136.41,269.9 1158.44,269.9 1172,283.467C1185.57,297.033 1185.57,319.061 1172,332.628L879.631,625L1172,917.372C1185.57,930.939 1185.57,952.967 1172,966.533C1158.44,980.1 1136.41,980.1 1122.84,966.533L830.47,674.161L538.098,966.533C524.531,980.1 502.503,980.1 488.937,966.533C475.37,952.967 475.37,930.939 488.937,917.372L781.309,625ZM-70.24,1457.2L-70.24,1262.44L5.236,1262.44C24.383,1262.62 38.765,1267.43 48.383,1276.87C58.09,1286.39 62.944,1299 62.944,1314.67C63.122,1322.68 61.207,1330.34 57.2,1337.65C55.152,1341.12 52.213,1344.41 48.383,1347.53C44.554,1350.83 39.834,1353.81 34.223,1356.48L34.223,1357.02C44.821,1359.78 52.836,1365.34 58.269,1373.71C63.345,1382.35 65.883,1391.75 65.883,1401.9C65.705,1418.73 60.45,1432.05 50.12,1441.84C39.878,1452.08 27.099,1457.2 11.781,1457.2L-70.24,1457.2ZM4.701,1370.78L-40.717,1370.78L-40.717,1429.29L4.701,1429.29C15.655,1429.11 23.67,1426.12 28.746,1420.34C33.823,1414.64 36.361,1407.87 36.361,1400.03C36.361,1392.02 33.823,1385.16 28.746,1379.46C23.67,1373.85 15.655,1370.95 4.701,1370.78ZM1.896,1288.76L-40.717,1288.76L-40.717,1344.46L1.896,1344.46C12.672,1344.46 20.598,1341.65 25.674,1336.04C30.839,1330.88 33.422,1324.38 33.422,1316.54C33.422,1308.7 30.839,1302.07 25.674,1296.64C20.598,1291.56 12.672,1288.93 1.896,1288.76ZM211.49,1457.2L196.395,1413.66L122.523,1413.66L107.561,1457.2L76.302,1457.2L147.102,1262.44L171.815,1262.44L242.615,1457.2L211.49,1457.2ZM131.072,1387.47L187.979,1387.47L159.793,1302.38L159.258,1302.38L131.072,1387.47ZM358.566,1402.7L389.825,1402.7C385.55,1420.78 377.401,1434.67 365.379,1444.38C353,1454 338.35,1458.81 321.43,1458.81C306.112,1458.45 293.332,1454.71 283.091,1447.59C272.671,1440.73 265.102,1432.8 260.382,1423.81C258.957,1420.87 257.665,1418.06 256.508,1415.39C255.439,1412.63 254.548,1409.16 253.836,1404.97C252.5,1397.14 251.832,1382.09 251.832,1359.82C251.832,1337.2 252.5,1322.06 253.836,1314.4C255.261,1306.74 257.443,1300.56 260.382,1295.84C265.102,1286.84 272.671,1278.83 283.091,1271.79C293.332,1264.66 306.112,1261.01 321.43,1260.84C340.221,1261.01 355.538,1266.58 367.383,1277.53C379.227,1288.58 386.708,1302.25 389.825,1318.54L358.566,1318.54C356.162,1310.71 351.798,1304.03 345.475,1298.51C338.885,1293.25 330.87,1290.54 321.43,1290.36C314.483,1290.54 308.516,1291.92 303.529,1294.5C298.453,1297.17 294.357,1300.51 291.24,1304.52C287.41,1308.7 284.872,1314.09 283.625,1320.68C282.2,1327.63 281.488,1340.67 281.488,1359.82C281.488,1378.97 282.2,1391.93 283.625,1398.69C284.872,1405.46 287.41,1410.94 291.24,1415.12C294.357,1419.13 298.453,1422.38 303.529,1424.88C308.516,1427.82 314.483,1429.29 321.43,1429.29C337.994,1429.29 350.373,1420.42 358.566,1402.7ZM410.664,1457.2L410.664,1262.44L440.186,1262.44L440.186,1362.76L440.72,1362.76L520.871,1262.44L555.87,1262.44L493.486,1339.25L562.416,1457.2L527.417,1457.2L474.384,1361.96L440.186,1397.89L440.186,1457.2L410.664,1457.2ZM585.392,1409.92C600.888,1422.65 619.323,1429.11 640.696,1429.29C665.988,1428.93 678.812,1419.89 679.168,1402.17C679.347,1387.65 670.886,1378.92 653.787,1375.99C645.95,1374.92 637.357,1373.71 628.006,1372.38C611.263,1369.62 598.528,1363.43 589.801,1353.81C580.806,1343.92 576.309,1331.9 576.309,1317.74C576.309,1300.73 581.964,1287.02 593.274,1276.6C604.228,1266.27 619.768,1261.01 639.895,1260.84C664.118,1261.37 685.18,1268.09 703.08,1281.01L686.649,1305.32C672.044,1295.7 655.969,1290.71 638.425,1290.36C629.341,1290.36 621.772,1292.63 615.716,1297.17C609.393,1301.89 606.142,1308.93 605.964,1318.28C605.964,1323.89 608.146,1328.96 612.51,1333.51C616.874,1338.14 623.865,1341.34 633.483,1343.12C638.826,1344.01 646.129,1345.04 655.39,1346.2C673.647,1348.69 687.139,1355.24 695.866,1365.83C704.505,1376.25 708.824,1388.36 708.824,1402.17C707.845,1439.39 685.046,1458.27 640.429,1458.81C611.575,1458.81 586.773,1449.9 566.023,1432.09L585.392,1409.92ZM739.949,1457.2L739.949,1262.44L810.482,1262.44C818.141,1262.44 825.532,1263.15 832.657,1264.58C839.781,1266.45 846.995,1270.28 854.297,1276.06C860.442,1280.43 865.43,1286.66 869.259,1294.77C873.266,1302.6 875.27,1311.87 875.27,1322.55C875.27,1336.98 870.194,1350.11 860.042,1361.96C849.622,1374.43 834.393,1380.84 814.356,1381.19L769.471,1381.19L769.471,1457.2L739.949,1457.2ZM769.471,1290.36L769.471,1353.28L813.154,1353.28C824.107,1353.1 832.345,1349.71 837.867,1343.12C843.121,1336.71 845.748,1329.59 845.748,1321.75C845.748,1315.25 844.679,1309.77 842.542,1305.32C840.316,1301.31 837.199,1298.15 833.191,1295.84C827.135,1292.01 820.1,1290.18 812.085,1290.36L769.471,1290.36ZM996.698,1457.2L981.603,1413.66L907.731,1413.66L892.77,1457.2L861.511,1457.2L932.311,1262.44L957.024,1262.44L1027.82,1457.2L996.698,1457.2ZM916.281,1387.47L973.188,1387.47L945.001,1302.38L944.467,1302.38L916.281,1387.47ZM1143.78,1402.7L1175.03,1402.7C1170.76,1420.78 1162.61,1434.67 1150.59,1444.38C1138.21,1454 1123.56,1458.81 1106.64,1458.81C1091.32,1458.45 1078.54,1454.71 1068.3,1447.59C1057.88,1440.73 1050.31,1432.8 1045.59,1423.81C1044.16,1420.87 1042.87,1418.06 1041.72,1415.39C1040.65,1412.63 1039.76,1409.16 1039.05,1404.97C1037.71,1397.14 1037.04,1382.09 1037.04,1359.82C1037.04,1337.2 1037.71,1322.06 1039.05,1314.4C1040.47,1306.74 1042.65,1300.56 1045.59,1295.84C1050.31,1286.84 1057.88,1278.83 1068.3,1271.79C1078.54,1264.66 1091.32,1261.01 1106.64,1260.84C1125.43,1261.01 1140.75,1266.58 1152.59,1277.53C1164.44,1288.58 1171.92,1302.25 1175.03,1318.54L1143.78,1318.54C1141.37,1310.71 1137.01,1304.03 1130.68,1298.51C1124.09,1293.25 1116.08,1290.54 1106.64,1290.36C1099.69,1290.54 1093.73,1291.92 1088.74,1294.5C1083.66,1297.17 1079.57,1300.51 1076.45,1304.52C1072.62,1308.7 1070.08,1314.09 1068.83,1320.68C1067.41,1327.63 1066.7,1340.67 1066.7,1359.82C1066.7,1378.97 1067.41,1391.93 1068.83,1398.69C1070.08,1405.46 1072.62,1410.94 1076.45,1415.12C1079.57,1419.13 1083.66,1422.38 1088.74,1424.88C1093.73,1427.82 1099.69,1429.29 1106.64,1429.29C1123.2,1429.29 1135.58,1420.42 1143.78,1402.7ZM1195.87,1457.2L1195.87,1262.44L1320.24,1262.44L1320.24,1290.36L1225.39,1290.36L1225.39,1345.93L1306.35,1345.93L1306.35,1372.11L1225.39,1372.11L1225.39,1429.29L1320.24,1429.29L1320.24,1457.2L1195.87,1457.2Z"/>
    </g>
</svg>
